HIERARCHY
ROOT Hips
{
	OFFSET 0.00000 0.00000 0.00000
	CHANNELS 6 Xposition Yposition Zposition Yrotation Zrotation Xrotation 
	JOINT Lumbar
	{
		OFFSET 0 0 0
		CHANNELS 3 Zrotation Xrotation Yrotation
		JOINT Neck
		{
			OFFSET 0.00 0.2701 0.00
			CHANNELS 3 Zrotation Xrotation Yrotation
			End Site
			{
				OFFSET 0.00 0.1379 0.00
			}
		}
		JOINT RightShoulder
		{
			OFFSET 0.0119 0.2289 0.1181
			CHANNELS 3 Zrotation Xrotation Yrotation
			JOINT RightElbow
			{
				OFFSET 0.00 -0.1475 0.00
				CHANNELS 2 Zrotation Yrotation
				JOINT RightWrist
				{
					OFFSET 0.00 -0.1605 0.00
					CHANNELS 2 Zrotation Xrotation
					End Site
					{
						OFFSET 0.0040 -0.1068 0.0006
					}
				}
			}
		}
		JOINT LeftShoulder
		{
			OFFSET 0.0119 0.2289 -0.1181
			CHANNELS 3 Zrotation Xrotation Yrotation
			JOINT LeftElbow
			{
				OFFSET 0.00 -0.1475 0.00
				CHANNELS 2 Zrotation Yrotation
				JOINT LeftWrist
				{
					OFFSET 0.00 -0.1605 0.00
					CHANNELS 2 Zrotation Xrotation
					End Site
					{
						OFFSET 0.0040 -0.1068 -0.0006
					}
				}
			}
		}
	}
	JOINT RightHip
	{
		OFFSET 0.0316 -0.0424 0.0458
		CHANNELS 3 Zrotation Xrotation Yrotation
		JOINT RightKnee
		{
			OFFSET 0.00 -0.2438 0.00
			CHANNELS 1 Zrotation
			JOINT RightAnkle
			{
				OFFSET 0.00 -0.2449 0.00
				CHANNELS 3 Zrotation Xrotation Yrotation
				End Site
				{
					OFFSET 0.1237 -0.0542 0.0051
				}
			}
		}
	}
	JOINT LeftHip
	{
		OFFSET 0.0316 -0.0424 -0.0458
		CHANNELS 3 Zrotation Xrotation Yrotation
		JOINT LeftKnee
		{
			OFFSET 0.00 -0.2438 0.00
			CHANNELS 1 Zrotation
			JOINT LeftAnkle
			{
				OFFSET 0.00 -0.2449 0.00
				CHANNELS 3 Zrotation Xrotation Yrotation
				End Site
				{
					OFFSET 0.1237 -0.0542 -0.0051
				}
			}
		}
	}
}
MOTION
Frames: 16
Frame Time: 0.02
-0.0017 0.00344 -0.00028 27.07728 -16.51707 -3.10597 42.29659 -1.78264 -7.33154 -13.02831 4.32913 -1.1377 -19.95077 -4.62952 -7.1798 22.79206 160.6408 25.52715 12.66882 -18.01468 6.96745 -2.26383 24.96185 -133.35524 24.02159 -6.85968 26.35065 -1.71248 -4.47251 -19.90902 -6.8273 -3.87223 -4.14643 31.50482 4.1092 4.66619 -24.12198 -6.47082 2.16954 3.29004
-0.0015 0.0031 -0.00024 27.0598 -16.52033 -3.10285 42.30381 -1.78456 -7.32842 -13.03202 4.33315 -1.13753 -19.94539 -4.63036 -7.16327 22.8022 154.08674 23.80447 11.56208 -18.00492 6.98164 -2.2758 24.95721 -133.3381 24.02352 -6.86327 26.3713 -1.78463 -4.89419 -19.95242 -6.79832 -3.84485 -4.12774 31.52532 4.12934 4.69802 -24.16069 -6.47048 2.17212 3.29047
-0.0013 0.00277 -0.0002 27.04228 -16.52359 -3.09975 42.31102 -1.78647 -7.3253 -13.03573 4.3372 -1.13735 -19.93998 -4.63117 -7.14681 22.81232 147.553 22.08715 10.4588 -17.99525 6.99589 -2.28793 24.95274 -133.31875 24.02499 -6.86636 26.39192 -1.85666 -5.31527 -19.99574 -6.76936 -3.81749 -4.10907 31.54579 4.14953 4.73004 -24.19935 -6.47015 2.17467 3.29089
-0.0011 0.00244 -0.00016 27.02485 -16.52684 -3.09665 42.31822 -1.78838 -7.32219 -13.03943 4.34121 -1.13718 -19.9346 -4.63202 -7.1303 22.82243 141.0189 20.36972 9.35545 -17.98553 7.01006 -2.2999 24.94813 -133.30123 24.02682 -6.86985 26.41252 -1.92861 -5.73578 -20.03901 -6.74045 -3.79018 -4.09042 31.56624 4.16962 4.76182 -24.23795 -6.46982 2.17724 3.29132
-0.0009 0.0021 -0.00012 27.00749 -16.53007 -3.09351 42.32542 -1.7903 -7.31908 -13.04313 4.3452 -1.13701 -19.92928 -4.63289 -7.11382 22.83257 134.46513 18.6471 8.24874 -17.97567 7.02412 -2.31164 24.9433 -133.28692 24.0293 -6.87408 26.43313 -2.00064 -6.15658 -20.08234 -6.71153 -3.76289 -4.07178 31.58671 4.18963 4.79329 -24.27659 -6.46949 2.17983 3.29176
-0.0007 0.00177 -8e-05 26.98962 -16.53343 -3.09051 42.33267 -1.7922 -7.31593 -13.04682 4.34937 -1.13684 -19.92368 -4.63357 -7.09746 22.84266 127.97426 16.94112 7.15278 -17.96641 7.03877 -2.32459 24.93957 -133.25713 24.02866 -6.87478 26.45378 -2.07264 -6.57817 -20.12565 -6.68249 -3.73536 -4.05305 31.60718 4.21019 4.82644 -24.31527 -6.46914 2.18231 3.29214
-0.0005 0.00143 -3e-05 26.97281 -16.53652 -3.08724 42.33981 -1.79413 -7.31287 -13.05054 4.35316 -1.13666 -19.91864 -4.63468 -7.0806 22.85282 121.36255 15.20315 6.03618 -17.95596 7.05224 -2.33509 24.93364 -133.25802 24.03422 -6.88246 26.47432 -2.14465 -6.99786 -20.16894 -6.65373 -3.70834 -4.0345 31.62762 4.22962 4.85621 -24.35383 -6.46884 2.18501 3.29264
-0.0003 0.0011 1e-05 26.95502 -16.53985 -3.08422 42.34702 -1.79602 -7.30974 -13.05424 4.3573 -1.13648 -19.91309 -4.63532 -7.06468 22.86293 114.86485 13.49539 4.93901 -17.94659 7.06677 -2.34783 24.92973 -133.23152 24.03423 -6.88392 26.49497 -2.21662 -7.41901 -20.21228 -6.62473 -3.68087 -4.0158 31.6481 4.25008 4.88906 -24.39252 -6.46849 2.1875 3.29303
-0.0001 0.00077 4e-05 26.93604 -16.5435 -3.08148 42.35445 -1.79795 -7.30646 -13.05788 4.36187 -1.13633 -19.90689 -4.63564 -7.04802 22.87294 108.4936 11.82102 3.86355 -17.93862 7.08272 -2.36346 24.92834 -133.16756 24.02671 -6.87685 26.51574 -2.2887 -7.84339 -20.25559 -6.59532 -3.65275 -3.99684 31.66861 4.27189 4.92587 -24.43129 -6.46808 2.18975 3.29328
0.00011 0.00041 9e-05 26.92392 -16.54542 -3.07704 42.36103 -1.7999 -7.30387 -13.06177 4.364 -1.1361 -19.90432 -4.63859 -7.02994 22.88341 101.35578 9.94388 2.65702 -17.92285 7.0909 -2.36292 24.91259 -133.30712 24.06024 -6.91606 26.53578 -2.36063 -8.25355 -20.29878 -6.56792 -3.62805 -3.97916 31.68889 4.28622 4.94049 -24.46935 -6.46803 2.19344 3.29432
0.00029 0.00013 0.00012 26.89732 -16.55089 -3.07625 42.36911 -1.80164 -7.2999 -13.06517 4.37122 -1.13602 -19.89418 -4.63548 -7.0185 22.89298 95.86068 8.50149 1.73104 -17.92334 7.11518 -2.39617 24.92702 -133.02519 24.00867 -6.85946 26.55738 -2.43253 -8.69084 -20.34239 -6.53649 -3.59637 -3.95892 31.70967 4.31612 5.0015 -24.50909 -6.46722 2.19408 3.2937
0.00038 2e-05 9e-05 26.83055 -16.5671 -3.08521 42.38387 -1.80421 -7.2914 -13.06694 4.393 -1.1364 -19.86253 -4.62009 -6.99399 22.89956 94.70029 8.20432 1.54807 -17.97077 7.18664 -2.52607 25.02673 -131.50377 23.70678 -6.52127 26.5836 -2.50739 -9.22719 -20.38648 -6.49211 -3.54332 -3.93037 31.7323 4.39108 5.1948 -24.55276 -6.46418 2.18627 3.28837
0.00044 -1e-05 4e-05 26.74936 -16.58676 -3.0979 42.39961 -1.80634 -7.28162 -13.06824 4.41976 -1.13694 -19.82344 -4.59797 -6.98092 22.90545 95.21617 8.35112 1.65092 -18.03417 7.27385 -2.68932 25.15665 -129.57044 23.32126 -6.08968 26.61159 -2.58163 -9.78614 -20.43144 -6.44403 -3.48369 -3.89949 31.75566 4.48131 5.43375 -24.59866 -6.4604 2.17542 3.28141
0.00051 -7e-05 -1e-05 26.67499 -16.60408 -3.10903 42.4133 -1.80774 -7.27289 -13.06997 4.44383 -1.1374 -19.7882 -4.57585 -6.98438 22.9118 95.08472 8.32779 1.64157 -18.08863 7.35166 -2.83456 25.27067 -127.88488 22.9866 -5.71385 26.6382 -2.65419 -10.31879 -20.47605 -6.39884 -3.42852 -3.8705 31.77796 4.56298 5.64861 -24.64351 -6.45706 2.16604 3.2753
0.00059 -0.00016 -5e-05 26.59927 -16.62437 -3.11954 42.43398 -1.81295 -7.26224 -13.0709 4.46972 -1.1379 -19.75085 -4.5659 -6.90036 22.917 94.49525 8.17774 1.56164 -18.14993 7.4383 -2.99132 25.3924 -125.95931 22.60278 -5.2843 26.66615 -2.73515 -10.91955 -20.51914 -6.34852 -3.36707 -3.83799 31.80204 4.6513 5.87779 -24.68693 -6.45329 2.1563 3.26873
0.00064 -0.00018 -0.0001 26.52317 -16.63966 -3.13229 42.44004 -1.81025 -7.25521 -13.07324 4.49302 -1.13835 -19.71628 -4.52992 -6.99595 22.92512 95.22973 8.38942 1.69205 -18.20116 7.51113 -3.13272 25.50714 -124.41524 22.29489 -4.94118 26.69314 -2.7983 -11.3833 -20.56725 -6.30802 -3.31722 -3.8123 31.82421 4.72967 6.08782 -24.73585 -6.45022 2.14659 3.26272
